# AST/ASF file generated using VICON BodyLanguage
# -----------------------------------------------
:version 1.10
:name VICON
:units
  mass 1.0
  length 0.45
  angle deg
:documentation
   .ast/.asf automatically generated from VICON data using
   VICON BodyBuilder and BodyLanguage model FoxedUp or BRILLIANT.MOD
:root
   order TX TY TZ RX RY RZ
   axis XYZ
   position 0 0 0  
   orientation 0 0 0 
:bonedata
  begin
     id 1 
     name lhipjoint
     direction 0.645893 -0.654526 0.392961 
     length 2.38111 
     axis 0 0 0  XYZ
  end
  begin
     id 2 
     name lfemur
     direction 0.34202 -0.939693 0  
     length 6.6822  
     axis 0 0 20  XYZ
    dof rx ry rz
    limits (-160.0 20.0)
           (-70.0 70.0)
           (-60.0 70.0)
  end
  begin
     id 3 
     name ltibia
     direction 0.34202 -0.939693 0   
     length 6.93904   
     axis 0 0 20   XYZ
    dof rx
    limits (-10.0 170.0)
  end
  begin
     id 4 
     name lfoot
     direction 0.0694967 -0.190941 0.979138   
     length 2.13616   
     axis -90 7.62852e-016 20   XYZ
    dof rx rz
    limits (-45.0 90.0)
           (-70.0 20.0)
  end
  begin
     id 5 
     name ltoes
     direction 1.535e-011 -4.2202e-011 1   
     length 1.07536   
     axis -90 7.62852e-016 20   XYZ
    dof rx
    limits (-90.0 20.0)
  end
  begin
     id 6 
     name rhipjoint
     direction -0.700219 -0.612087 0.367481   
     length 2.54621  
     axis 0 0 0  XYZ 
  end
  begin
     id 7 
     name rfemur
     direction -0.34202 -0.939693 0   
     length 6.55353   
     axis 0 0 -20   XYZ
    dof rx ry rz
    limits (-160.0 20.0)
           (-70.0 70.0)
           (-70.0 60.0)
  end
  begin
     id 8 
     name rtibia
     direction -0.34202 -0.939693 0   
     length 6.8736   
     axis 0 0 -20   XYZ
    dof rx
    limits (-10.0 170.0)
 end
 begin
     id 9 
     name rfoot
     direction -0.0679995 -0.186827 0.980037   
     length 2.1218  
     axis -90 -7.62852e-016 -20   XYZ
    dof rx rz
    limits (-45.0 90.0)
           (-20.0 70.0)
  end
  begin
     id 10 
     name rtoes
     direction -1.53589e-011 -4.21772e-011 1   
     length 1.06864   
     axis -90 -7.62852e-016 -20   XYZ
    dof rx
    limits (-90.0 20.0)
  end
  begin
     id 11 
     name lowerback
     direction -0.0416607 0.996347 -0.0745409   
     length 2.12205   
     axis 0 0 0   XYZ
    dof rx ry rz
    limits (-20.0 45.0)
           (-30.0 30.0)
           (-30.0 30.0)
  end
  begin
     id 12 
     name upperback
     direction -0.000153993 0.999276 -0.0380568   
     length 2.12759   
     axis 0 0 0   XYZ
    dof rx ry rz
    limits (-20.0 45.0)
           (-30.0 30.0)
           (-30.0 30.0)
  end
  begin
     id 13 
     name thorax
     direction 0.0187671 0.999821 -0.00241421   
     length 2.13704   
     axis 0 0 0   XYZ
    dof rx ry rz
    limits (-20.0 45.0)
           (-30.0 30.0)
           (-30.0 30.0)
  end
  begin
     id 14 
     name lowerneck
     direction 0.0268157 0.964865 0.261374   
     length 1.65253   
     axis 0 0 0   XYZ
    dof rx ry rz
    limits (-20.0 45.0)
           (-30.0 30.0)
           (-30.0 30.0)
  end
  begin
     id 15 
     name upperneck
     direction 0.00263774 0.939908 -0.341418   
     length 1.72375   
     axis 0 0 0   XYZ
    dof rx ry rz
    limits (-20.0 45.0)
           (-30.0 30.0)
           (-30.0 30.0)
  end
  begin
     id 16
     name head
     direction -0.00526001 0.989001 -0.147818  
     length 1.74878  
     axis 0 0 0   XYZ
    dof rx ry rz
    limits (-20.0 45.0)
           (-30.0 30.0)
           (-30.0 30.0)
  end
  begin
     id 17 
     name lclavicle
     direction 0.881214 0.461162 -0.103884  
     length 3.25108  
     axis 0 0 0   XYZ
    dof ry rz
    limits (-20.0 10.0)
           (0.0 20.0)
  end
  begin
     id 18 
     name lhumerus
     direction 1 -4.4899e-011 3.38092e-027   
     length 4.87408   
     axis 180 -30 -90   XYZ
    dof rx ry rz
    limits (-60.0 90.0)
           (-90.0 90.0)
           (-90.0 90.0)
  end
  begin
     id 19
     name lradius
     direction 1 -4.48931e-011 9.96288e-027   
     length 2.76729   
     axis 180 -30 -90   XYZ
    dof rx
    limits (-10.0 170.0)
  end
  begin
     id 20
     name lwrist
     direction 1 -4.4896e-011 1.50617e-026   
     length 1.38364   
     axis -9.31234e-015 90 90   XYZ
    dof ry
    limits (-180.0 0.0)
 end
  begin
     id 21 
     name lhand
     direction 1 -4.49038e-011 3.01286e-026   
     length 0.98922   
     axis -1.92217e-014 90 90   XYZ
    dof rx rz
    limits (-90.0 90.0)
           (-45.0 45.0)
  end
  begin
     id 22 
     name lfingers
     direction 1 -4.49051e-011 6.02588e-026   
     length 0.797535   
     axis -3.84436e-014 90 90   XYZ
    dof rx
    limits (0.0 90.0)
  end
  begin
     id 23
     name lthumb
     direction 0.707107 -6.34901e-011 0.707107   
     length 1.14511   
     axis -90 45 2.19363e-014   XYZ
    dof rx rz
    limits (-45.0 45.0)
           (-45.0 45.0)
  end
  begin
     id 24 
     name rclavicle
     direction -0.893894 0.441652 -0.0767889   
     length 3.29361  
     axis 0 0 0   XYZ 
    dof ry rz
    limits (-10.0 20.0)
           (-20.0 0.0)
  end
  begin
     id 25 
     name rhumerus
     direction -1 -4.48945e-011 8.0491e-028  
     length 4.71404   
     axis 180 30 90   XYZ
    dof rx ry rz
    limits (-90.0 60.0)
           (-90.0 90.0)
           (-90.0 90.0)
  end
  begin
     id 26 
     name rradius
     direction -1 -4.48986e-011 9.27795e-027   
     length 2.83468   
     axis 180 30 90   XYZ
    dof rx
    limits (-10.0 170.0)
  end
  begin
     id 27 
     name rwrist
     direction -1 -4.49029e-011 1.5064e-026   
     length 1.41734   
     axis -9.31234e-015 -90 -90   XYZ
    dof ry
    limits (-180.0 0.0)
  end
  begin
     id 28
     name rhand
     direction -1 -4.48857e-011 3.01165e-026   
     length 0.868195   
     axis -1.92217e-014 -90 -90   XYZ
    dof rx rz
    limits (-90.0 90.0)
           (-45.0 45.0)
  end
  begin
     id 29
     name rfingers
     direction -1 -4.49048e-011 6.02585e-026   
     length 0.699961   
     axis -3.84436e-014 -90 -90   XYZ
    dof rx
    limits (0.0 90.0)
  end
  begin
     id 30
     name rthumb
     direction -0.707107 -6.34854e-011 0.707107   
     length 1.00501   
     axis -90 -45 -2.19363e-014   XYZ
    dof rx rz
    limits (-45.0 45.0)
           (-45.0 45.0)
  end
:hierarchy
  begin
    root lhipjoint rhipjoint lowerback
    lhipjoint lfemur
    lfemur ltibia
    ltibia lfoot
    lfoot ltoes
    rhipjoint rfemur
    rfemur rtibia
    rtibia rfoot
    rfoot rtoes
    lowerback upperback
    upperback thorax
    thorax lowerneck lclavicle rclavicle
    lowerneck upperneck
    upperneck head
    lclavicle lhumerus
    lhumerus lradius
    lradius lwrist
    lwrist lhand lthumb
    lhand lfingers
    rclavicle rhumerus
    rhumerus rradius
    rradius rwrist
    rwrist rhand rthumb
    rhand rfingers
  end

#!OML:ASF H:\ManfredObstacles\Project 1\Capture day 2\Session 1\male.ASF
:FULLY-SPECIFIED
:DEGREES
111
root 1.43478 15.4195 3.29517 -175.747 -0.318828 178.461
lowerback -3.99108 -0.0133939 -5.7311
upperback 0.943144 0.262968 -0.932081
thorax 3.19493 0.010662 2.26743
lowerneck -36.1915 -0.169359 0.595811
upperneck 38.387 -3.25186 1.59791
head 21.873 -1.36538 -0.390143
rclavicle 1.963e-015 1.51076e-014
rhumerus -33.0506 -14.5505 -80.7868
rradius 29.7617
rwrist 30.6937
rhand -5.14668 -7.5154
rfingers 7.12502
rthumb 20.6525 -36.4366
lclavicle 1.963e-015 1.51076e-014
lhumerus -19.9872 -6.22375 91.9332
lradius 39.9179
lwrist -33.0204
lhand -9.17945 8.44335
lfingers 7.12502
lthumb 16.7737 37.7388
rfemur -20.2041 9.07184 21.4449
rtibia 44.9951
rfoot -17.156 -24.7627
rtoes -9.88298
lfemur -19.8184 -7.19552 -25.3892
ltibia 48.5787
lfoot -4.43463 28.8118
ltoes 8.81441
112
root 1.4479 15.4738 3.25436 -175.305 -0.342806 178.665
lowerback -4.11531 -0.0490343 -5.58618
upperback 0.831528 0.214721 -0.803634
thorax 3.15298 -0.00587386 2.31654
lowerneck -36.3164 -0.142303 0.419591
upperneck 38.5871 -3.19351 1.70724
head 22.0554 -1.36061 -0.291242
rclavicle 5.46658e-016 2.66371e-014
rhumerus -32.8457 -14.5852 -80.8586
rradius 29.6688
rwrist 30.9347
rhand -4.87935 -7.49096
rfingers 7.12502
rthumb 20.9093 -36.3841
lclavicle 5.46658e-016 2.66371e-014
lhumerus -20.299 -5.60565 91.9281
lradius 39.0078
lwrist -33.3859
lhand -8.77526 8.34957
lfingers 7.12502
lthumb 17.1628 37.6116
rfemur -20.0442 9.32304 21.6024
rtibia 43.9758
rfoot -16.5588 -24.5486
rtoes -9.71629
lfemur -19.7463 -7.38463 -25.0722
ltibia 47.7083
lfoot -3.92327 28.6814
ltoes 9.47358
113
root 1.45772 15.5323 3.20969 -174.847 -0.387174 178.666
lowerback -4.38294 -0.010955 -5.52992
upperback 0.823159 0.280785 -0.857175
thorax 3.29017 0.024498 2.23504
lowerneck -36.5929 -0.227102 0.539382
upperneck 38.3502 -3.23769 1.55688
head 21.9543 -1.35414 -0.394358
rclavicle -2.78299e-015 -6.75868e-015
rhumerus -32.6242 -14.8009 -81.0379
rradius 29.5146
rwrist 30.8768
rhand -4.9913 -7.36802
rfingers 7.12502
rthumb 20.8018 -36.2729
lclavicle -2.78299e-015 -6.75868e-015
lhumerus -20.5078 -5.29632 91.7973
lradius 38.1438
lwrist -33.8401
lhand -7.87304 8.2816
lfingers 7.12502
lthumb 18.031 37.4658
rfemur -19.8838 9.35864 21.5174
rtibia 42.9868
rfoot -15.903 -24.2337
rtoes -9.80662
lfemur -19.6458 -7.60324 -25.0047
ltibia 46.8412
lfoot -3.54263 28.5191
ltoes 10.1771
114
root 1.46929 15.5887 3.1615 -174.465 -0.459366 178.753
lowerback -4.47692 -0.0359527 -5.4991
upperback 0.718461 0.248545 -0.76946
thorax 3.23684 0.0128715 2.30664
lowerneck -36.5804 -0.195663 0.544607
upperneck 38.279 -3.1353 1.49397
head 21.8969 -1.32208 -0.396655
rclavicle -1.2921e-015 4.37326e-014
rhumerus -32.497 -14.7777 -81.0859
rradius 29.3412
rwrist 30.9846
rhand -4.74018 -7.43561
rfingers 7.12502
rthumb 21.043 -36.3139
lclavicle -1.2921e-015 4.37326e-014
lhumerus -20.804 -4.62383 91.746
lradius 37.0064
lwrist -34.27
lhand -7.3205 7.98802
lfingers 7.12502
lthumb 18.5626 37.1224
rfemur -19.629 9.43227 21.5569
rtibia 42.0136
rfoot -15.3849 -23.977
rtoes -9.78372
lfemur -19.4661 -7.69661 -24.8291
ltibia 46.0152
lfoot -3.16539 28.2539
ltoes 10.4623
115
root 1.48299 15.6423 3.11735 -174.083 -0.645244 178.726
lowerback -4.67085 -0.0711593 -5.50938
upperback 0.722521 0.215278 -0.801099
thorax 3.35318 -0.00720305 2.27776
lowerneck -36.4905 -0.36548 0.294894
upperneck 38.1948 -3.34881 1.73482
head 21.8313 -1.40031 -0.284539
rclavicle -1.93815e-015 -1.63003e-014
rhumerus -32.3424 -15.15 -81.1623
rradius 29.2722
rwrist 31.5464
rhand -4.67474 -7.34642
rfingers 7.12502
rthumb 21.1059 -36.2177
lclavicle -1.93815e-015 -1.63003e-014
lhumerus -20.9809 -4.32357 91.5686
lradius 35.9615
lwrist -34.4448
lhand -6.77695 7.89448
lfingers 7.12502
lthumb 19.0853 36.9781
rfemur -19.4042 9.34048 21.4949
rtibia 41.0738
rfoot -14.8832 -23.7089
rtoes -9.49389
lfemur -19.3158 -7.99592 -24.7666
ltibia 45.1597
lfoot -2.57474 28.0622
ltoes 10.6083
116
root 1.49449 15.6927 3.07724 -173.688 -0.722607 178.88
lowerback -4.69911 -0.0565255 -5.40513
upperback 0.580488 0.225374 -0.741556
thorax 3.22078 0.00603474 2.28193
lowerneck -36.5178 -0.260738 0.722421
upperneck 37.9477 -3.19003 1.33767
head 21.6405 -1.32229 -0.513127
rclavicle 4.17448e-015 -4.37326e-015
rhumerus -32.3036 -15.2438 -81.2207
rradius 29.0834
rwrist 31.4034
rhand -4.61582 -7.42154
rfingers 7.12502
rthumb 21.1625 -36.2865
lclavicle 4.17448e-015 -4.37326e-015
lhumerus -21.5021 -3.53868 91.3832
lradius 35.0217
lwrist -35.6488
lhand -6.19916 7.43844
lfingers 7.12502
lthumb 19.6409 36.4663
rfemur -19.27 9.19733 21.6124
rtibia 40.1534
rfoot -14.3084 -23.306
rtoes -9.2005
lfemur -19.2522 -7.99361 -24.5135
ltibia 44.3643
lfoot -2.12574 27.7583
ltoes 11.0767
117
root 1.50624 15.7455 3.03476 -173.32 -0.757923 178.905
lowerback -4.9243 -0.0210747 -5.4242
upperback 0.616528 0.290244 -0.716413
thorax 3.37985 0.0333679 2.32434
lowerneck -36.6633 -0.249062 0.98696
upperneck 37.611 -3.12486 1.1037
head 21.4341 -1.2704 -0.649322
rclavicle -2.5345e-015 2.18663e-014
rhumerus -32.1979 -15.628 -81.1985
rradius 29.0226
rwrist 31.756
rhand -4.56132 -7.41528
rfingers 7.12502
rthumb 21.2148 -36.2744
lclavicle -2.5345e-015 2.18663e-014
lhumerus -21.641 -3.0331 91.2199
lradius 33.9329
lwrist -36.2699
lhand -5.54455 7.19023
lfingers 7.12502
lthumb 20.2701 36.1525
rfemur -19.0947 9.05769 21.6015
rtibia 39.2712
rfoot -13.5935 -22.9738
rtoes -9.37943
lfemur -19.1167 -8.04131 -24.4191
ltibia 43.5385
lfoot -1.68653 27.535
ltoes 11.3611
118
root 1.517 15.7961 2.9935 -172.927 -0.797485 179.049
lowerback -5.02864 -0.0108718 -5.32436
upperback 0.458381 0.297864 -0.676133
thorax 3.27386 0.0443132 2.31104
lowerneck -36.4412 -0.718639 -0.508322
upperneck 38.1021 -3.71308 2.4444
head 21.8107 -1.54419 0.127937
rclavicle -3.37934e-015 -5.56597e-015
rhumerus -32.3789 -15.8019 -81.1558
rradius 28.9099
rwrist 32.1962
rhand -4.52789 -7.3113
rfingers 7.12502
rthumb 21.247 -36.1668
lclavicle -3.37934e-015 -5.56597e-015
lhumerus -22.1234 -2.70152 91.0789
lradius 33.0442
lwrist -35.6907
lhand -4.66711 7.2058
lfingers 7.12502
lthumb 21.1132 36.0763
rfemur -19.0064 8.84585 21.7171
rtibia 38.444
rfoot -13.0174 -22.5233
rtoes -8.99736
lfemur -19.048 -7.98473 -24.1714
ltibia 42.7529
lfoot -1.48443 27.2146
ltoes 11.8631
119
root 1.53171 15.8439 2.9483 -172.631 -0.884999 179.09
lowerback -5.22558 0.0194844 -5.39614
upperback 0.53626 0.358798 -0.626024
thorax 3.46041 0.067444 2.40901
lowerneck -36.7607 -0.853394 -0.480734
upperneck 37.9663 -3.81818 2.33191
head 21.798 -1.57225 0.0394856
rclavicle 2.43511e-015 9.93923e-015
rhumerus -32.2637 -15.9075 -81.2147
rradius 28.9163
rwrist 31.9643
rhand -4.51874 -7.69244
rfingers 7.12502
rthumb 21.2558 -36.5469
lclavicle 2.43511e-015 9.93923e-015
lhumerus -22.329 -1.92218 90.8144
lradius 31.8809
lwrist -37.4765
lhand -4.22876 6.68231
lfingers 7.12502
lthumb 21.5343 35.5052
rfemur -18.7739 8.65938 21.7695
rtibia 37.6799
rfoot -12.5591 -22.1658
rtoes -8.98636
lfemur -18.7966 -7.9038 -24.0329
ltibia 41.9305
lfoot -1.09667 26.8521
ltoes 11.6616
120
root 1.54454 15.8895 2.90645 -172.301 -0.865341 179.089
lowerback -5.35294 0.0351401 -5.46619
upperback 0.516172 0.390931 -0.59852
thorax 3.50822 0.0809158 2.48006
lowerneck -36.6334 -0.849555 -0.550505
upperneck 37.8049 -3.79657 2.46228
head 21.6601 -1.55141 0.130073
rclavicle 2.5842e-015 1.15295e-014
rhumerus -32.1883 -16.3351 -81.0486
rradius 28.4866
rwrist 32.7583
rhand -4.64638 -7.57097
rfingers 7.12502
rthumb 21.1331 -36.4392
lclavicle 2.5842e-015 1.15295e-014
lhumerus -22.5343 -1.06073 90.5461
lradius 30.6361
lwrist -37.9463
lhand -3.94309 6.19258
lfingers 7.12502
lthumb 21.8086 34.9838
rfemur -18.665 8.50901 21.7498
rtibia 36.997
rfoot -12.0381 -21.7403
rtoes -8.83074
lfemur -18.6027 -7.70359 -23.9556
ltibia 41.1274
lfoot -0.814645 26.4838
ltoes 11.4747
121
root 1.55404 15.9348 2.86942 -171.885 -0.83469 179.066
lowerback -5.45751 0.0575742 -5.53219
upperback 0.452368 0.428317 -0.595148
thorax 3.49731 0.0990767 2.52411
lowerneck -36.6437 -0.857468 -0.532264
upperneck 37.8233 -3.87414 2.54854
head 21.6818 -1.56365 0.150052
rclavicle -4.47266e-015 5.1684e-015
rhumerus -32.0973 -16.505 -81.0571
rradius 28.2783
rwrist 32.8094
rhand -4.61332 -7.81006
rfingers 7.12502
rthumb 21.1649 -36.6747
lclavicle -4.47266e-015 5.1684e-015
lhumerus -22.901 -0.20871 90.1741
lradius 29.6437
lwrist -39.262
lhand -3.44219 5.90239
lfingers 7.12502
lthumb 22.2895 34.6369
rfemur -18.7364 8.12538 21.6881
rtibia 36.382
rfoot -11.5416 -21.1615
rtoes -8.78626
lfemur -18.5479 -7.53321 -23.8903
ltibia 40.3384
lfoot -0.572475 26.0953
ltoes 11.2794
122
root 1.56707 15.9746 2.82856 -171.626 -0.866729 179.053
lowerback -5.47452 0.118718 -5.61969
upperback 0.386441 0.512777 -0.623027
thorax 3.43078 0.141643 2.55108
lowerneck -36.7814 -1.07965 -0.664714
upperneck 37.5583 -4.08969 2.62736
head 21.5499 -1.62994 0.159782
rclavicle -3.23025e-015 8.74653e-015
rhumerus -32.2004 -17.0479 -80.8989
rradius 27.9117
rwrist 33.1946
rhand -4.65713 -7.84594
rfingers 7.12502
rthumb 21.1228 -36.7153
lclavicle -3.23025e-015 8.74653e-015
lhumerus -23.3 0.340734 89.8217
lradius 28.5593
lwrist -39.8113
lhand -3.13933 5.53879
lfingers 7.12502
lthumb 22.5802 34.2382
rfemur -18.6069 7.88689 21.6985
rtibia 35.8175
rfoot -10.9652 -20.8237
rtoes -9.02405
lfemur -18.2944 -7.45524 -23.8015
ltibia 39.5622
lfoot -0.287772 25.7313
ltoes 11.0999
123
root 1.57955 16.0111 2.78851 -171.325 -0.900709 179.132
lowerback -5.62711 0.166282 -5.59564
upperback 0.41299 0.586351 -0.622637
thorax 3.53827 0.175351 2.54546
lowerneck -36.814 -1.08101 -0.571067
upperneck 37.6416 -4.20745 2.6793
head 21.6196 -1.65234 0.136064
rclavicle 2.13694e-015 -1.19271e-015
rhumerus -32.2556 -17.5996 -80.7382
rradius 27.685
rwrist 33.8881
rhand -4.66108 -7.92288
rfingers 7.12502
rthumb 21.119 -36.7927
lclavicle 2.13694e-015 -1.19271e-015
lhumerus -23.5614 1.09875 89.4097
lradius 27.5266
lwrist -40.752
lhand -2.42662 5.65768
lfingers 7.12502
lthumb 23.2642 34.2723
rfemur -18.55 7.59322 21.8083
rtibia 35.2962
rfoot -10.4317 -20.4485
rtoes -9.34491
lfemur -18.1436 -7.34555 -23.6058
ltibia 38.853
lfoot -0.0710982 25.3601
ltoes 11.1739
124
root 1.59038 16.05 2.74747 -171.061 -0.960026 179.112
lowerback -5.64225 0.148779 -5.7394
upperback 0.373095 0.570511 -0.562085
thorax 3.505 0.166062 2.68753
lowerneck -37.051 -1.23047 -0.890943
upperneck 37.7898 -4.38876 2.94284
head 21.814 -1.72431 0.275718
rclavicle 2.98177e-016 -2.98177e-014
rhumerus -32.348 -17.9867 -80.4315
rradius 27.3511
rwrist 34.5342
rhand -4.69493 -7.941
rfingers 7.12502
rthumb 21.0865 -36.8145
lclavicle 2.98177e-016 -2.98177e-014
lhumerus -24.0344 2.39721 88.9008
lradius 26.4888
lwrist -42.2206
lhand -2.13182 5.1494
lfingers 7.12502
lthumb 23.547 33.728
rfemur -18.4699 7.27907 21.7984
rtibia 34.8143
rfoot -10.0153 -20.0481
rtoes -9.50644
lfemur -17.9398 -7.31937 -23.5341
ltibia 38.1543
lfoot 0.147781 25.0227
ltoes 11.174
125
root 1.60037 16.0834 2.71294 -170.674 -0.949275 179.117
lowerback -5.82326 0.158678 -5.74758
upperback 0.34178 0.594651 -0.588231
thorax 3.57238 0.175999 2.66847
lowerneck -37.4457 -1.0226 -0.272553
upperneck 37.5627 -4.14574 2.49722
head 21.7123 -1.5793 0.0122511
rclavicle 7.05686e-015 -1.31198e-014
rhumerus -32.3642 -18.6862 -80.2042
rradius 26.9799
rwrist 35.1006
rhand -4.61062 -7.992
rfingers 7.12502
rthumb 21.1675 -36.8564
lclavicle 7.05686e-015 -1.31198e-014
lhumerus -24.2591 3.64943 88.2567
lradius 25.3545
lwrist -43.671
lhand -1.64624 5.02258
lfingers 7.12502
lthumb 24.0127 33.5406
rfemur -18.5853 7.01891 21.7873
rtibia 34.3893
rfoot -9.60625 -19.6243
rtoes -9.65843
lfemur -17.9747 -7.34774 -23.4129
ltibia 37.5351
lfoot 0.498379 24.7102
ltoes 11.1342
